<svg xmlns="http://www.w3.org/2000/svg" viewBox="0 0 223.19 172.4"><defs><style>.cls-1{fill:#fff;}</style></defs><g id="Layer_2" data-name="Layer 2"><g id="Layer_1-2" data-name="Layer 1"><path class="cls-1" d="M212.89,30.4a65.86,65.86,0,0,0-14.18-15.67A66.59,66.59,0,0,0,180.19,4.3a69.29,69.29,0,0,0-42.65-1.75l-.28.08c-.41.12-.82.25-1.23.41a15,15,0,0,0,10.64,28.09A40.58,40.58,0,0,1,171.58,30a40.15,40.15,0,0,1,11.83,5.33,40.94,40.94,0,0,1,9.59,8.9,40.35,40.35,0,0,1,8.63,25,45.73,45.73,0,0,1-18.54,36.6,44.06,44.06,0,0,1-12.88,6.51,47.85,47.85,0,0,1-29.44-.67A51.82,51.82,0,0,1,134.4,109c.3-.65.6-1.3.88-2a75,75,0,0,0,5.38-19.92,73.65,73.65,0,0,0-.52-21,66.62,66.62,0,0,0-7-20.31,60,60,0,0,0-14.17-17.09A66.59,66.59,0,0,0,99.63,17.91a76.12,76.12,0,0,0-21.51-4.2,77.94,77.94,0,0,0-11,.32,78.93,78.93,0,0,0-10.89,1.89A86.5,86.5,0,0,0,47,18.83V18.4a11.71,11.71,0,0,0-.09-1.18A10,10,0,1,0,27,19.88l1.16,8.61a109.56,109.56,0,0,0-9.85,7.35A120.34,120.34,0,0,0,3.47,51L3.4,51q-.37.47-.72,1A15,15,0,1,0,27.35,69.11q2.49-3.58,5.32-6.92l11,82.6a2.59,2.59,0,0,0,5.16-.38L47.41,48.58c.71-.5,1.41-1,2.13-1.48a64.87,64.87,0,0,1,13.67-6.7,53.41,53.41,0,0,1,14.65-2.74,53,53,0,0,1,14.9,1.62,45.06,45.06,0,0,1,13.41,6.09,39.59,39.59,0,0,1,10.24,10.44,47.82,47.82,0,0,1,6.21,14.06,56.4,56.4,0,0,1,1.7,15.86,59.07,59.07,0,0,1-2.48,14.5,46,46,0,0,1-5.61-6.46,40.56,40.56,0,0,1-6.29-14,49.92,49.92,0,0,1-1-15.85v0a3.48,3.48,0,0,0-6.89-.9,57.47,57.47,0,0,0-.37,18.34A49.55,49.55,0,0,0,108,99.05a57.09,57.09,0,0,0,9.53,12q-1.5,3-3.29,5.9a89.82,89.82,0,0,1-10.53,13.66,105.08,105.08,0,0,1-13.08,11.7,137.29,137.29,0,0,1-15,9.73,218.62,218.62,0,0,1-33.26,14.71,2.91,2.91,0,0,0,1.73,5.55A226.11,226.11,0,0,0,79.6,159.92a146,146,0,0,0,16.86-9.09A116.51,116.51,0,0,0,112,139.09a103.18,103.18,0,0,0,13.28-14.6c1.17-1.59,2.3-3.23,3.37-4.91a66,66,0,0,0,7.52,3.89,62.55,62.55,0,0,0,9,3.16,61.75,61.75,0,0,0,19.2,2.08,62.16,62.16,0,0,0,9.76-1.3,63.93,63.93,0,0,0,9.47-2.93,64.66,64.66,0,0,0,8.88-4.46,62.92,62.92,0,0,0,15.14-13A65.3,65.3,0,0,0,223,70.23,63.25,63.25,0,0,0,212.89,30.4Z"/></g></g></svg>